<svg xmlns="http://www.w3.org/2000/svg" xmlns:xlink="http://www.w3.org/1999/xlink">
<defs>
<symbol viewBox="0 0 48 48" id="arcticons-niagara-launcher-settings"><path fill="none" stroke="currentColor" stroke-linecap="round" stroke-linejoin="round" d="M33.43 25.238c.054-.41.083-.824.087-1.238a10.218 10.218 0 0 0-.087-1.238l3.464-2.315a.66.66 0 0 0 .164-.863l-2.702-4.687a.66.66 0 0 0-.824-.29l-3.743 1.845a9.708 9.708 0 0 0-2.142-1.238l-.272-4.147a.66.66 0 0 0-.66-.567h-5.417a.66.66 0 0 0-.66.567l-.273 4.147a9.51 9.51 0 0 0-2.142 1.238l-3.755-1.845a.66.66 0 0 0-.824.29l-2.702 4.687a.66.66 0 0 0 .165.863l3.456 2.315c-.053.41-.082.824-.086 1.238c.004.414.032.828.086 1.238l-3.456 2.315a.66.66 0 0 0-.165.863l2.702 4.687a.66.66 0 0 0 .824.29l3.742-1.845a9.708 9.708 0 0 0 2.143 1.238l.272 4.147a.66.66 0 0 0 .66.567h5.405a.66.66 0 0 0 .659-.567l.273-4.147a9.51 9.51 0 0 0 2.143-1.238l3.74 1.845a.66.66 0 0 0 .825-.29l2.702-4.687a.66.66 0 0 0-.165-.863z"></path><path fill="none" stroke="currentColor" stroke-linecap="round" stroke-linejoin="round" d="M23.999 28a4 4 0 1 1 3.994-4.006V24a3.994 3.994 0 0 1-3.989 4z"></path><circle cx="24" cy="24" r="21.5" fill="none" stroke="currentColor" stroke-linecap="round" stroke-linejoin="round"></circle></symbol>
<symbol viewBox="0 0 48 48" id="arcticons-settings"><path fill="none" stroke="currentColor" stroke-linecap="round" stroke-linejoin="round" d="M39.23 26a16.52 16.52 0 0 0 .14-2a16.52 16.52 0 0 0-.14-2l4.33-3.39a1 1 0 0 0 .25-1.31l-4.1-7.11a1 1 0 0 0-1.25-.44l-5.11 2.06a15.68 15.68 0 0 0-3.46-2l-.77-5.43a1 1 0 0 0-1-.86H19.9a1 1 0 0 0-1 .86l-.77 5.43a15.36 15.36 0 0 0-3.46 2L9.54 9.75a1 1 0 0 0-1.25.44l-4.1 7.11a1 1 0 0 0 .25 1.31L8.76 22a16.66 16.66 0 0 0-.14 2a16.52 16.52 0 0 0 .14 2l-4.32 3.39a1 1 0 0 0-.25 1.31l4.1 7.11a1 1 0 0 0 1.25.44l5.11-2.06a15.68 15.68 0 0 0 3.46 2l.77 5.43a1 1 0 0 0 1 .86h8.2a1 1 0 0 0 1-.86l.77-5.43a15.36 15.36 0 0 0 3.46-2l5.11 2.06a1 1 0 0 0 1.25-.44l4.1-7.11a1 1 0 0 0-.25-1.31ZM24 31.18A7.18 7.18 0 1 1 31.17 24A7.17 7.17 0 0 1 24 31.18"></path></symbol>
<symbol viewBox="0 0 48 48" id="healthicons-ui-settings"><path fill="currentColor" fill-rule="evenodd" d="M20 6h8v.734c.618 6.866 2.662 8.109 8.898 5.2l.69-.398l4 6.928l-.39.225c-5.904 4.1-5.965 6.509-.066 10.583l.457.264l-.02.034l-3.98 6.894l-.762-.44c-6.355-2.906-8.292-1.476-8.8 6L28 41.697V42h-8v-1.166c-.67-6.626-2.82-7.64-9.154-4.62l-.434.25l-4-6.928l1.035-.598c5.239-3.782 5.237-6.145-.103-9.935l-.932-.539l4-6.928l.223.129c6.47 3.097 8.7 2.166 9.365-4.463zm9 18a5 5 0 1 1-10 0a5 5 0 0 1 10 0m3 0a8 8 0 1 1-16 0a8 8 0 0 1 16 0m2 0c0 5.523-4.477 10-10 10s-10-4.477-10-10s4.477-10 10-10s10 4.477 10 10" clip-rule="evenodd"></path></symbol>
<symbol viewBox="0 0 48 48" id="healthicons-ui-settings-negative"><g fill="none"><g fill="currentColor" clip-path="url(#healthiconsUiSettingsNegative0)"><path d="M24 29a5 5 0 1 0 0-10a5 5 0 0 0 0 10"></path><path fill-rule="evenodd" d="M24 34c5.523 0 10-4.477 10-10s-4.477-10-10-10s-10 4.477-10 10s4.477 10 10 10m0-2a8 8 0 1 0 0-16a8 8 0 0 0 0 16" clip-rule="evenodd"></path><path fill-rule="evenodd" d="M48 0H0v48h48zM20 6v1.202c-.666 6.63-2.895 7.56-9.365 4.463l-.223-.13l-4 6.93l.932.538c5.34 3.79 5.341 6.153.103 9.935l-1.035.598l4 6.928l.434-.25c6.335-3.02 8.484-2.006 9.154 4.62V42h8v-.304l.027.329c.508-7.477 2.444-8.907 8.8-6l.761.44l3.98-6.894l.02-.035l-.456-.264c-5.899-4.074-5.838-6.483.066-10.583l.39-.225l-4-6.928l-.69.399C30.662 14.843 28.618 13.6 28 6.734V6z" clip-rule="evenodd"></path></g><defs><clipPath id="healthiconsUiSettingsNegative0"><path d="M0 0h48v48H0z"></path></clipPath></defs></g></symbol>
<symbol viewBox="0 0 48 48" id="healthicons-ui-settings-outline"><g fill="currentColor" fill-rule="evenodd" clip-rule="evenodd"><path d="M19.134 5.603h9.732v1.663c.147 1.605.371 2.811.688 3.685c.318.877.694 1.326 1.083 1.555c.387.228.952.336 1.857.18c.905-.155 2.053-.558 3.51-1.235l1.496-.864l4.866 8.429l-1.207.696c-1.384.963-2.365 1.788-2.997 2.523c-.634.738-.845 1.304-.85 1.766c-.004.458.193 1.017.812 1.746c.617.729 1.588 1.547 2.97 2.503l1.272.735l-.519.899l-4.347 7.53l-1.56-.901c-1.485-.677-2.64-1.065-3.538-1.196c-.892-.13-1.435.006-1.808.264c-.39.27-.767.792-1.074 1.786c-.307.992-.51 2.344-.63 4.123h-.024v.908h-9.732v-2.076c-.159-1.541-.397-2.678-.723-3.488c-.324-.805-.7-1.201-1.094-1.397c-.407-.203-1.008-.28-1.956-.087c-.941.193-2.123.634-3.61 1.341l-1.251.722l-4.866-8.428l1.822-1.052c1.215-.88 2.068-1.638 2.611-2.314c.544-.676.722-1.2.718-1.636c-.004-.437-.191-.965-.751-1.646c-.56-.68-1.432-1.44-2.674-2.325l-1.726-.996l4.866-8.429l1.048.605c1.521.727 2.736 1.188 3.708 1.398c.98.213 1.609.147 2.034-.05c.405-.189.786-.572 1.114-1.361c.33-.797.572-1.925.73-3.465zm-7.882 29.113c1.394-.645 2.626-1.103 3.707-1.325c1.185-.243 2.291-.222 3.25.256c.972.484 1.619 1.352 2.058 2.44c.433 1.076.696 2.447.862 4.083l.005.05v.178h5.837c.13-1.416.33-2.626.638-3.621c.374-1.21.94-2.213 1.847-2.84c.925-.64 2.033-.774 3.234-.599c1.174.171 2.528.648 4.073 1.352l2.89-5.006c-1.293-.916-2.326-1.784-3.055-2.644c-.796-.938-1.296-1.948-1.285-3.059c.01-1.108.528-2.113 1.332-3.05c.727-.846 1.745-1.702 3.012-2.607l-2.898-5.02c-1.483.685-2.788 1.158-3.926 1.354c-1.18.202-2.275.123-3.21-.428c-.934-.55-1.54-1.47-1.949-2.597c-.39-1.077-.632-2.428-.785-4.03h-5.755v.211l-.005.05c-.165 1.639-.433 3.01-.878 4.082c-.453 1.089-1.122 1.944-2.118 2.407c-.976.454-2.099.453-3.3.192c-1.047-.227-2.234-.667-3.57-1.278l-2.897 5.017l.076.044l.038.027c1.32.936 2.37 1.825 3.098 2.712c.734.892 1.198 1.85 1.207 2.9c.009 1.05-.44 2.01-1.159 2.905c-.713.888-1.746 1.777-3.04 2.712l-.042.03l-.178.103z"></path><path d="M24 27a3 3 0 1 0 0-6a3 3 0 0 0 0 6m0 2a5 5 0 1 0 0-10a5 5 0 0 0 0 10"></path><path d="M24 31a7 7 0 1 0 0-14a7 7 0 0 0 0 14m0 2a9 9 0 1 0 0-18a9 9 0 0 0 0 18"></path></g></symbol>
<symbol viewBox="0 0 24 24" id="ic-baseline-settings"><path fill="currentColor" d="M19.14 12.94c.04-.3.06-.61.06-.94c0-.32-.02-.64-.07-.94l2.03-1.58a.49.49 0 0 0 .12-.61l-1.92-3.32a.488.488 0 0 0-.59-.22l-2.39.96c-.5-.38-1.03-.7-1.62-.94l-.36-2.54a.484.484 0 0 0-.48-.41h-3.84c-.24 0-.43.17-.47.41l-.36 2.54c-.59.24-1.13.57-1.62.94l-2.39-.96c-.22-.08-.47 0-.59.22L2.74 8.87c-.12.21-.08.47.12.61l2.03 1.58c-.05.3-.09.63-.09.94s.02.64.07.94l-2.03 1.58a.49.49 0 0 0-.12.61l1.92 3.32c.12.22.37.29.59.22l2.39-.96c.5.38 1.03.7 1.62.94l.36 2.54c.05.24.24.41.48.41h3.84c.24 0 .44-.17.47-.41l.36-2.54c.59-.24 1.13-.56 1.62-.94l2.39.96c.22.08.47 0 .59-.22l1.92-3.32c.12-.22.07-.47-.12-.61zM12 15.6c-1.98 0-3.6-1.62-3.6-3.6s1.62-3.6 3.6-3.6s3.6 1.62 3.6 3.6s-1.62 3.6-3.6 3.6"></path></symbol>
<symbol viewBox="0 0 24 24" id="ic-baseline-settings-applications"><path fill="currentColor" d="M12 10c-1.1 0-2 .9-2 2s.9 2 2 2s2-.9 2-2s-.9-2-2-2m7-7H5a2 2 0 0 0-2 2v14a2 2 0 0 0 2 2h14a2 2 0 0 0 2-2V5a2 2 0 0 0-2-2m-1.75 9c0 .23-.02.46-.05.68l1.48 1.16c.13.11.17.3.08.45l-1.4 2.42c-.09.15-.27.21-.43.15l-1.74-.7c-.36.28-.76.51-1.18.69l-.26 1.85c-.03.17-.18.3-.35.3h-2.8c-.17 0-.32-.13-.35-.29l-.26-1.85c-.43-.18-.82-.41-1.18-.69l-1.74.7c-.16.06-.34 0-.43-.15l-1.4-2.42a.353.353 0 0 1 .08-.45l1.48-1.16c-.03-.23-.05-.46-.05-.69c0-.23.02-.46.05-.68l-1.48-1.16a.353.353 0 0 1-.08-.45l1.4-2.42c.09-.15.27-.21.43-.15l1.74.7c.36-.28.76-.51 1.18-.69l.26-1.85c.03-.17.18-.3.35-.3h2.8c.17 0 .32.13.35.29l.26 1.85c.43.18.82.41 1.18.69l1.74-.7c.16-.06.34 0 .43.15l1.4 2.42c.09.15.05.34-.08.45l-1.48 1.16c.03.23.05.46.05.69"></path></symbol>
<symbol viewBox="0 0 24 24" id="ic-sharp-settings"><path fill="currentColor" d="m19.44 12.99l-.01.02c.04-.33.08-.67.08-1.01c0-.34-.03-.66-.07-.99l.01.02l2.44-1.92l-2.43-4.22l-2.87 1.16l.01.01c-.52-.4-1.09-.74-1.71-1h.01L14.44 2H9.57l-.44 3.07h.01c-.62.26-1.19.6-1.71 1l.01-.01l-2.88-1.17l-2.44 4.22l2.44 1.92l.01-.02c-.04.33-.07.65-.07.99c0 .34.03.68.08 1.01l-.01-.02l-2.1 1.65l-.33.26l2.43 4.2l2.88-1.15l-.02-.04c.53.41 1.1.75 1.73 1.01h-.03L9.58 22h4.85s.03-.18.06-.42l.38-2.65h-.01c.62-.26 1.2-.6 1.73-1.01l-.02.04l2.88 1.15l2.43-4.2s-.14-.12-.33-.26zM12 15.5c-1.93 0-3.5-1.57-3.5-3.5s1.57-3.5 3.5-3.5s3.5 1.57 3.5 3.5s-1.57 3.5-3.5 3.5"></path></symbol>
<symbol viewBox="0 0 24 24" id="ic-sharp-settings-applications"><path fill="currentColor" d="M19 3H5a2 2 0 0 0-2 2v14a2 2 0 0 0 2 2h14a2 2 0 0 0 2-2V5a2 2 0 0 0-2-2m-1.75 9c0 .24-.02.47-.05.71l.01-.02l1.47 1.16c.14.1.23.18.23.18l-1.7 2.94l-2.02-.8l.02-.03c-.37.29-.77.53-1.21.71h.01l-.27 1.85c-.02.17-.04.3-.04.3h-3.4l-.31-2.15H10a5.06 5.06 0 0 1-1.21-.71l.02.03l-2.02.8l-1.7-2.94s.1-.08.23-.18l1.47-1.16l.01.02c-.03-.24-.05-.47-.05-.71s.02-.47.05-.69l-.01.01l-1.7-1.34l1.7-2.95l2.01.81v.01c.37-.28.77-.52 1.2-.7h-.01L10.3 5h3.41l.3 2.15H14c.43.18.83.42 1.2.7v-.01l2.01-.81l1.7 2.95l-1.71 1.34l-.01-.01c.04.22.06.45.06.69"></path><circle cx="12" cy="12" r="2.45" fill="currentColor"></circle></symbol>
<symbol viewBox="0 0 24 24" id="lets-icons-setting-fill"><path fill="currentColor" fill-rule="evenodd" d="M13.984 2.542c.087.169.109.386.152.82c.082.82.123 1.23.295 1.456a1 1 0 0 0 .929.384c.28-.037.6-.298 1.238-.82c.337-.277.506-.415.687-.473a1 1 0 0 1 .702.035c.175.076.33.23.637.538l.894.894c.308.308.462.462.538.637a1 1 0 0 1 .035.702c-.058.181-.196.35-.472.687c-.523.639-.784.958-.822 1.239a1 1 0 0 0 .385.928c.225.172.636.213 1.457.295c.433.043.65.065.82.152a1 1 0 0 1 .47.521c.071.177.071.395.071.831v1.264c0 .436 0 .654-.07.83a1 1 0 0 1-.472.522c-.169.087-.386.109-.82.152c-.82.082-1.23.123-1.456.295a1 1 0 0 0-.384.929c.038.28.299.6.821 1.238c.276.337.414.505.472.687a1 1 0 0 1-.035.702c-.076.175-.23.329-.538.637l-.894.893c-.308.309-.462.463-.637.538a1 1 0 0 1-.702.035c-.181-.058-.35-.196-.687-.472c-.639-.522-.958-.783-1.238-.82a1 1 0 0 0-.929.384c-.172.225-.213.635-.295 1.456c-.043.434-.065.651-.152.82a1 1 0 0 1-.521.472c-.177.07-.395.07-.831.07h-1.264c-.436 0-.654 0-.83-.07a1 1 0 0 1-.522-.472c-.087-.169-.109-.386-.152-.82c-.082-.82-.123-1.23-.295-1.456a1 1 0 0 0-.928-.384c-.281.037-.6.298-1.239.82c-.337.277-.506.415-.687.473a1 1 0 0 1-.702-.035c-.175-.076-.33-.23-.637-.538l-.894-.894c-.308-.308-.462-.462-.538-.637a1 1 0 0 1-.035-.702c.058-.181.196-.35.472-.687c.523-.639.784-.958.821-1.239a1 1 0 0 0-.384-.928c-.225-.172-.636-.213-1.457-.295c-.433-.043-.65-.065-.82-.152a1 1 0 0 1-.47-.521C2 13.286 2 13.068 2 12.632v-1.264c0-.436 0-.654.07-.83a1 1 0 0 1 .472-.522c.169-.087.386-.109.82-.152c.82-.082 1.231-.123 1.456-.295a1 1 0 0 0 .385-.928c-.038-.281-.3-.6-.822-1.24c-.276-.337-.414-.505-.472-.687a1 1 0 0 1 .035-.702c.076-.174.23-.329.538-.637l.894-.893c.308-.308.462-.463.637-.538a1 1 0 0 1 .702-.035c.181.058.35.196.687.472c.639.522.958.783 1.238.821a1 1 0 0 0 .93-.385c.17-.225.212-.635.294-1.456c.043-.433.065-.65.152-.82a1 1 0 0 1 .521-.471c.177-.07.395-.07.831-.07h1.264c.436 0 .654 0 .83.07a1 1 0 0 1 .522.472M12 16a4 4 0 1 0 0-8a4 4 0 0 0 0 8" clip-rule="evenodd"></path></symbol>
<symbol viewBox="0 0 24 24" id="lets-icons-setting-line"><path fill="currentColor" d="m14.136 3.361l.995-.1zm-.152-.82L13.095 3zm.447 2.277l.795-.607zm.929.384l-.134-.99zm1.238-.82l.633.773zm.687-.473l.305.953zm.702.035l.398-.917zm.637.538l-.707.707zm.894.894l.707-.707zm.538.637l.917-.398zm.035.702l.952.304zm-.472.687l-.774-.633zm-.822 1.239l-.99-.134zm.385.928l-.606.795zm1.457.295l.099-.995zm.82.152l.458-.889zm.47.521l.93-.367zm.001 2.926l-.93-.368zm-.472.52l.459.89zm-.82.153l-.099-.995l-.033.003l-.032.006zm0 0l.1.995l.033-.003l.032-.005zm-1.456.295l-.606-.795zm-.384.929l-.991.133zm.821 1.238l-.774.633zm.472.687l-.953.304zm-.035.702l-.918-.398zm-.538.637l.707.707zm-.894.893l-.707-.707zm-.637.538l.398.918zm-.702.035l-.304.953zm-.687-.472l.633-.774l-.008-.006zm0 0l-.633.774l.008.007zm-1.238-.82l.133-.992zm-.929.384l.795.606zm-.295 1.456l-.995-.1zm-.152.82L13.095 21zm-.521.472l-.368-.93zm-2.926 0l.368-.93zm-.52-.472l.888-.458zm-.153-.82l-.995.1zm-.295-1.456l-.795.607zm-.928-.384l-.134-.992zm-1.239.82l-.633-.773l-.016.013l-.015.013zm0 0l.633.775l.016-.013l.015-.014zm-.687.473l.304.952zm-.702-.035l-.398.917zm-.637-.538l.707-.707zm-.894-.894l-.707.707zm-.538-.637l.918-.397zm-.035-.702l.953.305zm.472-.687l.774.633zm.821-1.239l.992.134zm-.384-.928l.606-.795zm-1.457-.295l-.1.995zm-.82-.152L3 13.095zm-.47-.521l-.93.367zm0-2.926l-.93-.368zm.47-.52l-.458-.89zm.82-.153v-1h-.05l-.049.005zm0 0v1h.05l.05-.005zm1.457-.295l-.606-.795zm.385-.928l.991-.134zM4.38 7.4l.774-.632zm-.472-.687l.953-.304zm.035-.702l-.917-.397zm.538-.637l.707.707zm.894-.893l-.707-.707zm.637-.538l-.398-.918zm.702-.035l.304-.953zm.687.472l.633-.774zm1.238.821l.134-.991zm.93-.385l-.796-.606zm.294-1.456l.995.1zm.152-.82l-.889-.458zm.521-.471l.368.93zm2.926 0l.367-.93zm1.668 1.192a9.346 9.346 0 0 0-.068-.575a2.02 2.02 0 0 0-.19-.604L13.095 3c-.023-.045-.018-.061-.005.018c.015.089.028.213.051.443zm.095.95c.063.082.043.119.008-.076c-.033-.186-.06-.447-.103-.874l-1.99.199c.04.394.074.748.125 1.03c.049.27.135.625.37.933zm0 0l-1.59 1.212a2 2 0 0 0 1.857.77zm.739-.605a13.01 13.01 0 0 1-.691.545c-.163.113-.151.073-.048.06l.267 1.982c.384-.052.696-.242.922-.4c.235-.162.51-.388.816-.639zm1.016-.65a2.02 2.02 0 0 0-.561.292c-.14.1-.297.229-.455.358l1.266 1.548c.179-.146.276-.225.35-.277c.065-.047.056-.031.009-.016zm1.404.07a2 2 0 0 0-1.404-.07l.609 1.905zm.946.748a8.862 8.862 0 0 0-.417-.402a2.02 2.02 0 0 0-.53-.346l-.794 1.835c-.046-.02-.053-.036.007.017c.068.06.157.147.32.31zm.894.894l-.894-.894l-1.414 1.414l.894.894zm.748.946a2.02 2.02 0 0 0-.346-.53a9.385 9.385 0 0 0-.402-.416L18.81 6.083c.163.163.25.252.31.32c.053.06.037.053.017.007zm.07 1.404a2 2 0 0 0-.07-1.404l-1.835.795zm-.65 1.016a8.54 8.54 0 0 0 .358-.455c.106-.148.22-.332.292-.561l-1.905-.609c.015-.047.03-.056-.016.01c-.052.073-.13.17-.277.349zm-.605.739c-.013.103-.053.115.06-.048c.107-.155.273-.358.545-.69l-1.548-1.267c-.25.306-.477.581-.64.816c-.157.226-.347.538-.399.922zm0 0l-1.982-.267a2 2 0 0 0 .77 1.857zm.95.095a13.02 13.02 0 0 1-.874-.103c-.195-.035-.158-.055-.076.008l-1.212 1.59c.308.235.662.321.934.37c.281.05.635.085 1.029.125zm1.179.258a2.02 2.02 0 0 0-.604-.19a9.346 9.346 0 0 0-.575-.068l-.199 1.99a9.1 9.1 0 0 1 .443.05c.08.014.063.019.018-.004zm.943 1.043a2 2 0 0 0-.943-1.043L21 10.906zm.14 1.198c0-.204 0-.407-.011-.579a2.017 2.017 0 0 0-.13-.62L21 10.906c-.018-.047-.012-.063-.006.017c.006.09.006.215.006.446zm0 1.264v-1.264h-2v1.264zm-.14 1.198c.088-.223.117-.437.129-.62c.011-.171.011-.374.011-.578h-2c0 .231 0 .356-.006.446c-.006.08-.012.064.006.017zm-.943 1.043a2 2 0 0 0 .943-1.043L21 13.095zm-1.179.258c.204-.02.405-.04.575-.068c.18-.03.39-.08.604-.19L21 13.095c.044-.023.061-.018-.018-.005a7.673 7.673 0 0 1-.443.051zm.065-.008l-.329-1.973zm-1.014.103c-.083.063-.12.043.075.008c.186-.033.447-.06.874-.103l-.199-1.99c-.393.04-.748.074-1.029.125c-.271.049-.626.135-.934.37zm0 0l-1.213-1.59a2 2 0 0 0-.77 1.857zm.604.738a13.074 13.074 0 0 1-.545-.69c-.113-.163-.073-.151-.06-.048l-1.981.267c.052.384.241.696.399.922c.163.235.389.51.639.816zm.65 1.016a2.02 2.02 0 0 0-.292-.56c-.1-.141-.229-.297-.358-.456l-1.548 1.267c.146.179.225.275.277.349c.047.065.032.057.016.01zm-.07 1.405a2 2 0 0 0 .07-1.405l-1.905.61zm-.748.946c.145-.145.288-.287.402-.417c.12-.138.25-.309.346-.53l-1.835-.795c.02-.046.036-.052-.017.008c-.06.068-.147.156-.31.32zm-.894.893l.894-.893l-1.414-1.414l-.894.893zm-.946.749a2.02 2.02 0 0 0 .53-.347c.129-.113.272-.257.416-.402l-1.414-1.414a7.889 7.889 0 0 1-.32.31c-.06.054-.053.038-.007.018zm-1.404.07a2 2 0 0 0 1.404-.07l-.795-1.835zm-1.016-.65c.158.129.314.258.455.358c.148.105.332.219.561.292l.609-1.905c.047.015.056.03-.01-.016a7.745 7.745 0 0 1-.349-.277zm.008.006l1.25-1.561zm-.747-.61c-.103-.015-.115-.055.048.058c.155.108.358.273.69.545l1.267-1.547c-.306-.251-.581-.477-.816-.64c-.226-.158-.538-.347-.922-.399zm0 0l.267-1.983a2 2 0 0 0-1.857.77zm-.095.949c.043-.427.07-.689.103-.874c.035-.195.055-.159-.008-.076l-1.59-1.213c-.235.308-.321.663-.37.934c-.05.282-.085.636-.125 1.03zm-.259 1.179c.11-.214.16-.424.19-.604c.03-.17.049-.371.07-.575l-1.99-.2a8.292 8.292 0 0 1-.052.444c-.013.08-.018.063.005.018zm-1.041.943a2 2 0 0 0 1.041-.943L13.095 21zm-1.2.14c.205 0 .408 0 .58-.011c.182-.012.396-.04.62-.13L13.095 21c.047-.018.063-.012-.017-.006a7.77 7.77 0 0 1-.446.006zm-1.263 0h1.264v-2h-1.264zm-1.198-.14c.223.088.437.117.62.129c.171.011.374.011.578.011v-2c-.231 0-.356 0-.446-.006c-.08-.006-.064-.012-.017.006zm-1.043-.943a2 2 0 0 0 1.043.943l.735-1.86zm-.258-1.179c.02.204.04.405.068.575c.03.18.08.39.19.604l1.78-.916c.023.044.018.061.005-.018a7.668 7.668 0 0 1-.051-.443zm-.095-.95c-.063-.082-.043-.12-.008.076c.033.185.06.447.103.874l1.99-.199c-.04-.394-.074-.748-.125-1.03c-.049-.27-.135-.625-.37-.933zm0 0l1.59-1.212a2 2 0 0 0-1.857-.77zm-.739.605c.333-.272.536-.438.691-.545c.163-.113.151-.073.048-.06l-.267-1.982c-.384.052-.696.242-.922.4c-.235.162-.51.388-.816.639zm.031-.027L6.737 18.87zm-1.047.677a2.02 2.02 0 0 0 .561-.292c.14-.1.297-.229.455-.358L6.77 18.845a7.767 7.767 0 0 1-.35.277c-.065.047-.056.032-.009.016zm-1.404-.07a2 2 0 0 0 1.404.07l-.609-1.905zm-.947-.748c.145.145.288.288.418.402c.137.12.308.25.53.346l.794-1.835c.046.02.053.036-.007-.017a7.694 7.694 0 0 1-.32-.31zm-.893-.894l.894.894l1.414-1.414l-.894-.894zm-.748-.946c.095.22.226.392.346.53c.114.129.257.272.402.416l1.414-1.414a7.733 7.733 0 0 1-.31-.32c-.053-.06-.037-.053-.017-.007zm-.07-1.404a2 2 0 0 0 .07 1.404l1.835-.795zm.65-1.016a8.54 8.54 0 0 0-.358.455a2.02 2.02 0 0 0-.292.561l1.905.609c-.016.047-.03.056.016-.01c.052-.073.13-.17.277-.349zm.604-.739c.014-.103.054-.115-.059.048c-.107.155-.273.358-.545.69l1.548 1.267c.25-.306.477-.581.64-.816c.157-.226.347-.538.399-.922zm0 0l1.983.267a2 2 0 0 0-.77-1.857zm-.95-.095c.428.043.69.07.875.103c.195.035.158.055.075-.008l1.213-1.59c-.308-.235-.662-.321-.934-.37c-.281-.05-.635-.085-1.03-.125zm-1.178-.258c.214.11.424.16.604.19c.17.028.371.048.575.068l.199-1.99a7.675 7.675 0 0 1-.443-.05c-.08-.014-.063-.019-.018.004zM1.14 13.83a2 2 0 0 0 .943 1.043L3 13.095zM1 12.632c0 .204 0 .407.011.579c.012.182.04.396.13.62L3 13.094c.018.047.012.063.007-.017A7.745 7.745 0 0 1 3 12.632zm0-1.264v1.264h2v-1.264zm.14-1.199a2.02 2.02 0 0 0-.129.62c-.012.172-.011.375-.011.58h2c0-.232 0-.357.007-.447c.005-.08.011-.064-.007-.017zm.943-1.041a2 2 0 0 0-.943 1.041l1.86.736zm1.179-.26c-.204.021-.405.04-.575.07c-.18.03-.39.08-.604.19L3 10.905c-.045.023-.061.018.018.005a7.65 7.65 0 0 1 .443-.051zm.1-.004v2zm0 0v2zm.85-.09c.083-.063.12-.043-.076-.008c-.185.033-.447.06-.874.103l.2 1.99c.393-.04.747-.074 1.029-.125c.271-.049.626-.135.934-.37zm0 0l1.213 1.59a2 2 0 0 0 .769-1.857zm-.605-.739c.272.332.438.536.546.691c.113.163.073.151.059.048l1.982-.267c-.052-.384-.241-.695-.399-.922c-.163-.235-.39-.51-.64-.816zm-.65-1.017c.073.23.186.413.292.562c.1.14.229.297.358.455L5.155 6.77a7.742 7.742 0 0 1-.277-.35c-.047-.065-.031-.057-.016-.01zm.07-1.403a2 2 0 0 0-.07 1.403l1.905-.608zm.748-.947c-.145.145-.288.287-.402.417a2.02 2.02 0 0 0-.346.53l1.835.795c-.02.046-.036.053.017-.008c.06-.068.147-.156.31-.32zm.894-.893l-.894.893L5.19 6.082l.894-.893zm0 0l1.414 1.414zm.946-.749a2.02 2.02 0 0 0-.53.347a9.385 9.385 0 0 0-.416.402l1.414 1.414c.163-.164.252-.251.32-.31c.06-.054.053-.038.007-.018zm1.404-.07a2 2 0 0 0-1.404.07l.795 1.835zm1.016.65c-.158-.129-.314-.257-.455-.357a2.02 2.02 0 0 0-.561-.293L6.41 4.861c-.047-.015-.056-.03.01.016c.073.053.17.131.349.278zm.739.605c.103.014.115.054-.048-.059a13.022 13.022 0 0 1-.69-.545L6.768 5.155c.306.25.581.476.816.64c.226.157.538.346.922.398zm0 0l-.267 1.982a2 2 0 0 0 1.857-.77zm.095-.95c-.043.428-.07.69-.103.875c-.035.195-.055.158.008.075l1.59 1.213c.235-.308.321-.663.37-.934c.05-.281.086-.636.125-1.03zm.258-1.178a2.02 2.02 0 0 0-.19.604c-.028.17-.048.371-.068.575l1.99.199a9.1 9.1 0 0 1 .05-.443c.014-.08.019-.062-.004-.018zm1.043-.943a2 2 0 0 0-1.043.943L10.905 3zM11.368 1c-.204 0-.407 0-.579.011a2.02 2.02 0 0 0-.62.129L10.906 3c-.047.018-.063.012.017.007c.09-.006.215-.007.446-.007zm1.264 0h-1.264v2h1.264zm1.198.14a2.02 2.02 0 0 0-.62-.129C13.04.999 12.837 1 12.633 1v2c.231 0 .356 0 .446.007c.08.005.064.011.017-.007zm1.043.943a2 2 0 0 0-1.043-.943L13.095 3zM15 12a3 3 0 0 1-3 3v2a5 5 0 0 0 5-5zm-3-3a3 3 0 0 1 3 3h2a5 5 0 0 0-5-5zm-3 3a3 3 0 0 1 3-3V7a5 5 0 0 0-5 5zm3 3a3 3 0 0 1-3-3H7a5 5 0 0 0 5 5z"></path></symbol>
<symbol viewBox="0 0 24 24" id="lets-icons-setting-line-duotone"><path fill="currentColor" fill-opacity=".25" fill-rule="evenodd" d="M14.136 3.361c-.043-.433-.065-.65-.152-.82a1 1 0 0 0-.521-.47C13.286 2 13.068 2 12.632 2h-1.264c-.436 0-.654 0-.83.07a1 1 0 0 0-.522.472c-.087.169-.109.386-.152.82c-.082.82-.123 1.23-.295 1.455a1 1 0 0 1-.929.385c-.28-.038-.6-.299-1.238-.821c-.337-.276-.506-.414-.687-.472a1 1 0 0 0-.702.035c-.175.075-.33.23-.637.538l-.894.893c-.308.308-.462.463-.538.637a1 1 0 0 0-.035.702c.058.182.196.35.472.688c.523.639.784.958.822 1.239a1 1 0 0 1-.385.928c-.225.172-.635.213-1.456.295c-.434.043-.651.065-.82.152a1 1 0 0 0-.472.521c-.07.177-.07.395-.07.831v1.264c0 .436 0 .654.07.83a1 1 0 0 0 .472.522c.169.087.386.109.82.152c.82.082 1.23.123 1.456.295a1 1 0 0 1 .384.928c-.037.281-.298.6-.82 1.239c-.277.337-.415.506-.473.687a1 1 0 0 0 .035.702c.076.175.23.33.538.637l.894.894c.308.308.462.462.637.538a1 1 0 0 0 .702.035c.181-.058.35-.196.687-.472c.639-.523.958-.784 1.239-.822a1 1 0 0 1 .928.385c.172.225.213.636.295 1.457c.043.433.065.65.152.82a1 1 0 0 0 .521.47c.177.071.395.071.831.071h1.264c.436 0 .654 0 .83-.07a1 1 0 0 0 .522-.471c.087-.17.109-.387.152-.82c.082-.822.123-1.232.295-1.457a1 1 0 0 1 .929-.385c.28.038.6.299 1.238.821c.337.276.506.414.687.472a1 1 0 0 0 .702-.035c.175-.075.33-.23.637-.538l.894-.893c.308-.308.462-.462.538-.637a1 1 0 0 0 .035-.702c-.058-.182-.196-.35-.472-.687c-.522-.639-.783-.958-.821-1.238a1 1 0 0 1 .385-.93c.225-.17.635-.212 1.456-.294c.433-.043.65-.065.82-.152a1 1 0 0 0 .471-.521c.07-.177.07-.395.07-.831v-1.264c0-.436 0-.654-.07-.83a1 1 0 0 0-.472-.522c-.169-.087-.386-.109-.82-.152c-.82-.082-1.23-.123-1.456-.295a1 1 0 0 1-.384-.928c.037-.281.298-.6.82-1.239c.277-.337.415-.506.473-.687a1 1 0 0 0-.035-.702c-.076-.175-.23-.33-.538-.637l-.894-.894c-.308-.308-.462-.462-.637-.538a1 1 0 0 0-.702-.035c-.181.058-.35.196-.687.472c-.639.523-.958.784-1.238.821a1 1 0 0 1-.929-.384c-.172-.225-.213-.636-.295-1.457" clip-rule="evenodd"></path><circle cx="12" cy="12" r="3" fill="currentColor"></circle></symbol>
<symbol viewBox="0 0 24 24" id="lets-icons-setting-line-duotone-line"><path fill="currentColor" fill-opacity=".25" fill-rule="evenodd" d="M13.984 2.542c.087.169.109.386.152.82c.082.82.123 1.23.295 1.456a1 1 0 0 0 .929.384c.28-.037.6-.298 1.238-.82c.337-.277.506-.415.687-.473a1 1 0 0 1 .702.035c.175.076.33.23.637.538l.894.894c.308.308.462.462.538.637a1 1 0 0 1 .035.702c-.058.181-.196.35-.472.687c-.523.639-.784.958-.822 1.239a1 1 0 0 0 .385.928c.225.172.636.213 1.457.295c.433.043.65.065.82.152a1 1 0 0 1 .47.521c.071.177.071.395.071.831v1.264c0 .436 0 .654-.07.83a1 1 0 0 1-.472.522c-.169.087-.386.109-.82.152c-.82.082-1.23.123-1.456.295a1 1 0 0 0-.384.929c.038.28.299.6.821 1.238c.276.337.414.505.472.687a1 1 0 0 1-.035.702c-.076.175-.23.329-.538.637l-.894.893c-.308.309-.462.463-.637.538a1 1 0 0 1-.702.035c-.181-.058-.35-.196-.687-.472c-.639-.522-.958-.783-1.238-.82a1 1 0 0 0-.929.384c-.172.225-.213.635-.295 1.456c-.043.434-.065.651-.152.82a1 1 0 0 1-.521.472c-.177.07-.395.07-.831.07h-1.264c-.436 0-.654 0-.83-.07a1 1 0 0 1-.522-.472c-.087-.169-.109-.386-.152-.82c-.082-.82-.123-1.23-.295-1.456a1 1 0 0 0-.928-.384c-.281.037-.6.298-1.239.82c-.337.277-.506.415-.687.473a1 1 0 0 1-.702-.035c-.175-.076-.33-.23-.637-.538l-.894-.894c-.308-.308-.462-.462-.538-.637a1 1 0 0 1-.035-.702c.058-.181.196-.35.472-.687c.523-.639.784-.958.821-1.239a1 1 0 0 0-.384-.928c-.225-.172-.636-.213-1.457-.295c-.433-.043-.65-.065-.82-.152a1 1 0 0 1-.47-.521C2 13.286 2 13.068 2 12.632v-1.264c0-.436 0-.654.07-.83a1 1 0 0 1 .472-.522c.169-.087.386-.109.82-.152c.82-.082 1.231-.123 1.456-.295a1 1 0 0 0 .385-.928c-.038-.281-.3-.6-.822-1.24c-.276-.337-.414-.505-.472-.687a1 1 0 0 1 .035-.702c.076-.174.23-.329.538-.637l.894-.893c.308-.308.462-.463.637-.538a1 1 0 0 1 .702-.035c.181.058.35.196.687.472c.639.522.958.783 1.238.821a1 1 0 0 0 .93-.385c.17-.225.212-.635.294-1.456c.043-.433.065-.65.152-.82a1 1 0 0 1 .521-.471c.177-.07.395-.07.831-.07h1.264c.436 0 .654 0 .83.07a1 1 0 0 1 .522.472M12 16a4 4 0 1 0 0-8a4 4 0 0 0 0 8" clip-rule="evenodd"></path><path fill="currentColor" d="m14.136 3.361l.597-.06zm-.152-.82l-.534.276zm.447 2.277l.477-.364zm.929.384l-.08-.594zm1.238-.82l.38.464zm.687-.473l.183.572zm.702.035l.239-.55zm.637.538l-.424.424zm.894.894l.424-.425zm.538.637l.55-.239zm.035.702l.571.182zm-.472.687l-.465-.38zm-.822 1.239l-.594-.08zm.385.928l-.364.477zm1.457.295l.06-.597zm.82.152l.274-.533zm.47.521l.559-.22zm.001 2.926l-.558-.22zm-.472.52l.275.534zm-.82.153l-.06-.597l-.019.002l-.019.003zm0 0l.06.597l.02-.002l.02-.003zm-1.456.295l-.363-.477zm-.384.929l-.595.08zm.821 1.238l-.464.38zm.472.687l-.572.182zm-.035.702l-.55-.239zm-.538.637l.424.424zm-.894.893l-.424-.424zm-.637.538l.239.55zm-.702.035l-.182.572zm-.687-.472l.38-.464l-.005-.004zm0 0l-.38.465l.005.004zm-1.238-.82l.08-.596zm-.929.384l.477.364zm-.295 1.456l-.597-.06zm-.152.82l-.534-.275zm-.521.472l-.22-.558zm-2.926 0l.22-.558zm-.52-.472l.533-.275zm-.153-.82l-.597.06zm-.295-1.456l-.477.364zm-.928-.384l-.08-.595zm-1.239.82l-.38-.463l-.01.007l-.009.008zm0 0l.38.465l.01-.007l.009-.009zm-.687.473l.182.571zm-.702-.035l-.239.55zm-.637-.538l.424-.425zm-.894-.894l-.424.425zm-.538-.637l.55-.238zm-.035-.702l.572.183zm.472-.687l.464.38zm.821-1.239l.595.08zm-.384-.928l.364-.477zm-1.457-.295l-.06.597zm-.82-.152l.276-.534zm-.47-.521l-.559.22zm0-2.926l-.559-.22zm.47-.52l-.275-.534zm.82-.153v-.6h-.03l-.03.003zm0 0v.6h.03l.03-.003zm1.457-.295l-.364-.477zm.385-.928l.595-.08zM4.38 7.4l.465-.38zm-.472-.687l.572-.182zm.035-.702l-.55-.238zm.538-.637l.425.424zm.894-.893l-.425-.425zm.637-.538l-.239-.55zm.702-.035l.182-.572zm.687.472l.38-.465zm1.238.821l.08-.595zm.93-.385l-.478-.363zm.294-1.456l.597.06zm.152-.82l-.533-.274zm.521-.471l.221.558zm2.926 0l.22-.558zm1.27 1.232a8.08 8.08 0 0 0-.065-.549a1.624 1.624 0 0 0-.151-.486l-1.066.55a.489.489 0 0 1 .034.135c.017.105.032.244.054.47zm.175 1.152c.004.005-.03-.037-.067-.247a13.25 13.25 0 0 1-.108-.905l-1.194.12c.04.4.073.735.12.997c.047.257.12.533.295.763zm.372.154a.4.4 0 0 1-.372-.154l-.954.728a1.6 1.6 0 0 0 1.485.615zm.938-.691a13.26 13.26 0 0 1-.716.564c-.176.122-.228.128-.223.127l.16 1.19c.287-.04.534-.183.748-.332c.219-.152.48-.366.79-.62zm.885-.58a1.624 1.624 0 0 0-.451.238a8.36 8.36 0 0 0-.434.342l.76.929a7.59 7.59 0 0 1 .37-.294a.486.486 0 0 1 .12-.071zm1.123.057a1.6 1.6 0 0 0-1.123-.056l.365 1.143a.4.4 0 0 1 .28.014zm.823.664a9.34 9.34 0 0 0-.398-.384a1.625 1.625 0 0 0-.425-.28l-.477 1.1a.487.487 0 0 1 .112.084c.08.07.18.169.339.328zm.893.893l-.893-.893l-.849.848l.893.894zm.664.823a1.623 1.623 0 0 0-.28-.425a9.34 9.34 0 0 0-.384-.398l-.849.849c.16.16.26.259.33.34a.466.466 0 0 1 .082.111zm.056 1.123a1.6 1.6 0 0 0-.056-1.123l-1.1.477a.4.4 0 0 1 .013.281zm-.579.885a8.36 8.36 0 0 0 .342-.434c.094-.132.182-.277.237-.45l-1.143-.366a.483.483 0 0 1-.071.12a7.59 7.59 0 0 1-.294.37zm-.69.939c-.002.005.004-.048.126-.223c.119-.17.297-.389.564-.716l-.928-.76c-.255.312-.47.572-.621.791c-.149.214-.293.461-.331.748zm.153.37a.4.4 0 0 1-.154-.37l-1.19-.16a1.6 1.6 0 0 0 .616 1.485zm1.152.176c-.42-.042-.7-.07-.905-.107c-.21-.038-.252-.072-.247-.068l-.728.954c.23.175.506.248.763.295c.262.047.598.08.998.12zm1.035.216a1.623 1.623 0 0 0-.486-.151c-.154-.026-.34-.044-.549-.065l-.12 1.194c.226.022.365.037.47.054c.1.017.128.03.135.034zm.755.834a1.6 1.6 0 0 0-.755-.834l-.55 1.066a.4.4 0 0 1 .189.209zm.112 1.051c0-.21 0-.396-.01-.552a1.624 1.624 0 0 0-.102-.5l-1.116.442a.49.49 0 0 1 .02.138c.008.106.008.246.008.472zm0 1.264v-1.264h-1.2v1.264zm-.112 1.051c.067-.17.091-.337.102-.499c.01-.155.01-.342.01-.552h-1.2c0 .226 0 .366-.007.472a.487.487 0 0 1-.021.138zm-.755.834a1.6 1.6 0 0 0 .755-.834l-1.116-.44a.4.4 0 0 1-.189.207zm-1.035.216c.21-.02.395-.039.549-.065c.16-.027.324-.067.486-.15l-.55-1.068a.487.487 0 0 1-.135.035a7.969 7.969 0 0 1-.47.054zm.04-.005l-.198-1.184zm-1.192.18c-.004.004.037-.03.248-.068c.204-.036.484-.065.904-.107l-.12-1.194c-.4.04-.735.073-.997.12c-.256.046-.532.12-.762.295zm-.154.372a.4.4 0 0 1 .154-.372l-.727-.954a1.6 1.6 0 0 0-.616 1.486zm.691.938a13.173 13.173 0 0 1-.563-.716c-.122-.175-.128-.228-.128-.223l-1.189.16c.039.287.183.534.331.748c.152.218.366.48.62.79zm.58.884a1.625 1.625 0 0 0-.238-.45c-.09-.128-.209-.272-.342-.434l-.928.76c.143.174.231.283.293.37a.492.492 0 0 1 .071.12zm-.057 1.124a1.6 1.6 0 0 0 .056-1.124l-1.143.365a.4.4 0 0 1-.014.281zm-.664.822c.149-.148.28-.28.384-.398a1.61 1.61 0 0 0 .28-.424l-1.1-.478a.489.489 0 0 1-.084.112c-.07.08-.169.18-.328.34zm-.893.894l.893-.894l-.848-.848l-.894.893zm-.823.664c.167-.073.303-.174.425-.28c.117-.104.25-.236.398-.384l-.849-.849c-.16.16-.259.259-.34.329a.485.485 0 0 1-.111.083zm-1.123.056a1.6 1.6 0 0 0 1.123-.056l-.477-1.101a.4.4 0 0 1-.281.014zm-.885-.58c.163.134.307.252.434.343c.132.094.277.181.45.237l.366-1.143a.49.49 0 0 1-.12-.071a7.992 7.992 0 0 1-.37-.294zm.005.005l.75-.937zm-.943-.695c-.006-.001.047.005.222.127c.17.118.389.296.716.564l.76-.929c-.312-.255-.572-.469-.791-.62c-.214-.15-.46-.293-.748-.332zm-.372.154a.4.4 0 0 1 .372-.154l.16-1.19a1.6 1.6 0 0 0-1.486.616zm-.175 1.152c.042-.42.07-.7.107-.905c.038-.21.072-.252.068-.247l-.954-.728c-.175.23-.248.506-.295.762c-.047.262-.08.598-.12.999zm-.216 1.036c.084-.163.124-.327.151-.487c.026-.154.044-.34.065-.549l-1.194-.12a7.9 7.9 0 0 1-.054.47a.49.49 0 0 1-.034.135zm-.833.754a1.6 1.6 0 0 0 .833-.754l-1.066-.55a.4.4 0 0 1-.209.188zm-1.052.112c.21 0 .396 0 .552-.01c.162-.01.33-.035.5-.102l-.442-1.116a.49.49 0 0 1-.138.02a8.012 8.012 0 0 1-.472.008zm-1.264 0h1.264v-1.2h-1.264zm-1.051-.112c.17.067.337.091.499.102c.155.01.342.01.552.01v-1.2c-.226 0-.366 0-.472-.007a.49.49 0 0 1-.138-.021zm-.834-.755a1.6 1.6 0 0 0 .834.755l.44-1.116a.4.4 0 0 1-.207-.189zm-.216-1.035c.02.21.039.395.065.549c.027.16.067.324.151.486l1.066-.55a.49.49 0 0 1-.034-.135a7.992 7.992 0 0 1-.054-.47zm-.175-1.152c-.004-.005.03.037.068.247c.036.205.065.485.107.905l1.194-.12c-.04-.4-.073-.735-.12-.997c-.047-.257-.12-.533-.295-.763zm-.371-.154a.4.4 0 0 1 .37.154l.955-.728a1.6 1.6 0 0 0-1.485-.615zm-.939.691c.327-.267.545-.445.716-.564c.175-.122.228-.128.223-.127l-.16-1.19c-.287.04-.534.183-.748.332c-.219.152-.48.366-.79.62zm.019-.016l-.798-.897zm-.904.595a1.61 1.61 0 0 0 .451-.237a8.36 8.36 0 0 0 .434-.342l-.76-.928a7.982 7.982 0 0 1-.37.293a.49.49 0 0 1-.12.071zm-1.123-.056a1.6 1.6 0 0 0 1.123.056l-.365-1.143a.4.4 0 0 1-.28-.014zm-.823-.664c.149.148.28.28.398.384c.122.106.258.208.425.28l.477-1.1a.49.49 0 0 1-.112-.084a7.95 7.95 0 0 1-.34-.329zm-.893-.893l.893.893l.849-.849l-.894-.893zm-.664-.823c.072.167.174.303.28.425c.103.117.235.25.384.398l.848-.849a7.919 7.919 0 0 1-.328-.34a.487.487 0 0 1-.083-.111zm-.056-1.123a1.6 1.6 0 0 0 .056 1.123l1.1-.477a.4.4 0 0 1-.013-.281zm.579-.885a8.36 8.36 0 0 0-.342.434a1.625 1.625 0 0 0-.237.45l1.143.366a.488.488 0 0 1 .071-.12c.062-.087.15-.195.293-.37zm.69-.938c.002-.006-.004.046-.126.222c-.119.17-.297.389-.564.716l.928.76c.255-.312.47-.572.621-.791c.149-.214.293-.461.331-.748zm-.153-.372a.4.4 0 0 1 .154.372l1.19.16a1.6 1.6 0 0 0-.616-1.486zm-1.152-.175c.42.042.7.07.905.107c.21.038.252.072.247.068l.728-.954c-.23-.175-.506-.248-.763-.295c-.262-.047-.597-.08-.998-.12zm-1.035-.216c.162.084.326.124.486.151c.154.026.34.044.549.065l.12-1.194a7.985 7.985 0 0 1-.47-.054a.489.489 0 0 1-.135-.034zm-.755-.834c.142.36.41.656.755.834l.55-1.066a.4.4 0 0 1-.189-.209zm-.111-1.05c0 .21 0 .396.01.552c.01.162.035.33.102.5l1.116-.442a.488.488 0 0 1-.02-.138a7.985 7.985 0 0 1-.008-.472zm0-1.264v1.264h1.2v-1.264zm.112-1.051c-.067.17-.091.337-.102.499c-.01.155-.01.342-.01.552h1.2c0-.226 0-.366.007-.472c.007-.1.018-.13.021-.138zm.754-.834a1.6 1.6 0 0 0-.754.834l1.116.44a.4.4 0 0 1 .189-.207zm1.036-.216a8.08 8.08 0 0 0-.549.065c-.16.027-.324.067-.487.151l.55 1.066a.489.489 0 0 1 .136-.034a7.9 7.9 0 0 1 .47-.054zm.06-.003v1.2zm0 0v1.2zm1.092-.172c.005-.004-.036.03-.247.067c-.205.037-.485.066-.905.108l.12 1.194c.4-.04.736-.073.998-.12c.256-.047.532-.12.762-.295zm.154-.371a.4.4 0 0 1-.154.37l.728.955a1.6 1.6 0 0 0 .616-1.485zm-.691-.94c.268.328.445.546.564.717c.122.175.128.228.127.223l1.19-.16c-.039-.287-.183-.534-.331-.748c-.152-.219-.366-.48-.621-.791zm-.58-.884c.056.173.144.319.238.45c.09.128.209.272.342.435l.929-.76a8 8 0 0 1-.294-.37a.488.488 0 0 1-.071-.12zm.057-1.123a1.6 1.6 0 0 0-.056 1.123l1.143-.365a.4.4 0 0 1 .014-.281zm.664-.823c-.148.148-.28.28-.384.398a1.624 1.624 0 0 0-.28.425l1.1.477a.488.488 0 0 1 .084-.112c.07-.08.169-.18.329-.34zm.893-.893l-.893.893l.849.848l.893-.893zm0 0l.849.848zm.823-.665a1.624 1.624 0 0 0-.425.281a8.76 8.76 0 0 0-.398.384l.849.848c.16-.16.259-.259.34-.329a.488.488 0 0 1 .111-.083zm1.123-.056a1.6 1.6 0 0 0-1.123.056l.477 1.101a.4.4 0 0 1 .281-.014zm.885.58a8.433 8.433 0 0 0-.434-.343a1.624 1.624 0 0 0-.45-.237L6.531 4.48a.488.488 0 0 1 .12.072c.087.062.195.15.37.293zm.939.69c.005.001-.048-.005-.223-.127c-.17-.118-.389-.296-.716-.564l-.76.93c.312.254.572.468.791.62c.214.148.46.292.747.33zm.371-.153a.4.4 0 0 1-.371.153l-.16 1.19a1.6 1.6 0 0 0 1.485-.616zm.175-1.152c-.042.42-.07.7-.107.904c-.038.21-.072.252-.068.248l.954.727c.176-.23.248-.506.295-.762c.047-.262.08-.598.12-.998zm.216-1.035a1.624 1.624 0 0 0-.151.486c-.026.154-.044.34-.065.549l1.194.119a7.98 7.98 0 0 1 .054-.47a.479.479 0 0 1 .034-.134zm.834-.755a1.6 1.6 0 0 0-.834.755l1.066.55a.4.4 0 0 1 .209-.189zm1.051-.112c-.21 0-.396 0-.552.01c-.162.01-.33.035-.5.102l.442 1.116a.487.487 0 0 1 .138-.02c.106-.008.246-.008.472-.008zm1.264 0h-1.264v1.2h1.264zm1.051.112a1.624 1.624 0 0 0-.499-.102c-.155-.01-.342-.01-.552-.01v1.2c.226 0 .366 0 .472.007c.1.007.13.018.138.021zm.834.755a1.6 1.6 0 0 0-.834-.755l-.44 1.116a.4.4 0 0 1 .207.189zM15.4 12a3.4 3.4 0 0 1-3.4 3.4v1.2a4.6 4.6 0 0 0 4.6-4.6zM12 8.6a3.4 3.4 0 0 1 3.4 3.4h1.2A4.6 4.6 0 0 0 12 7.4zM8.6 12A3.4 3.4 0 0 1 12 8.6V7.4A4.6 4.6 0 0 0 7.4 12zm3.4 3.4A3.4 3.4 0 0 1 8.6 12H7.4a4.6 4.6 0 0 0 4.6 4.6z"></path></symbol>
<symbol viewBox="0 0 24 24" id="material-symbols-settings-overscan"><path fill="currentColor" d="M7 14v-4l-2 2zm5 3l2-2h-4zm-2-8h4l-2-2zm7 5l2-2l-2-2zM4 20q-.825 0-1.412-.587T2 18V6q0-.825.588-1.412T4 4h16q.825 0 1.413.588T22 6v12q0 .825-.587 1.413T20 20z"></path></symbol>
<symbol viewBox="0 0 24 24" id="material-symbols-settings-overscan-outline"><path fill="currentColor" d="M7 14v-4l-2 2zm5 3l2-2h-4zm-2-8h4l-2-2zm7 5l2-2l-2-2zM4 20q-.825 0-1.412-.587T2 18V6q0-.825.588-1.412T4 4h16q.825 0 1.413.588T22 6v12q0 .825-.587 1.413T20 20zm0-2h16V6H4zm0 0V6z"></path></symbol>
<symbol viewBox="0 0 24 24" id="mingcute-settings-5-fill"><g fill="none"><path d="M24 0v24H0V0zM12.593 23.258l-.011.002l-.071.035l-.02.004l-.014-.004l-.071-.035c-.01-.004-.019-.001-.024.005l-.004.01l-.017.428l.005.02l.01.013l.104.074l.015.004l.012-.004l.104-.074l.012-.016l.004-.017l-.017-.427c-.002-.01-.009-.017-.017-.018m.265-.113l-.013.002l-.185.093l-.01.01l-.003.011l.018.43l.005.012l.008.007l.201.093c.012.004.023 0 .029-.008l.004-.014l-.034-.614c-.003-.012-.01-.02-.02-.022m-.715.002a.023.023 0 0 0-.027.006l-.006.014l-.034.614c0 .012.007.02.017.024l.015-.002l.201-.093l.01-.008l.004-.011l.017-.43l-.003-.012l-.01-.01z"></path><path fill="currentColor" d="M14.41 2.293a9.947 9.947 0 0 1 2.75 1.14a1 1 0 0 1 .47 1.019c-.113.689.058 1.216.38 1.538c.322.322.85.493 1.538.38a1 1 0 0 1 1.019.47a9.945 9.945 0 0 1 1.14 2.75a1 1 0 0 1-.388 1.054c-.567.407-.82.9-.82 1.356c0 .456.253.95.82 1.357a1 1 0 0 1 .388 1.053a9.947 9.947 0 0 1-1.14 2.75a1 1 0 0 1-1.019.47c-.689-.113-1.216.059-1.538.38c-.322.322-.493.85-.38 1.538a1 1 0 0 1-.47 1.02a9.948 9.948 0 0 1-2.75 1.14a1 1 0 0 1-1.054-.388c-.407-.568-.9-.82-1.356-.82c-.456 0-.95.252-1.357.82a1 1 0 0 1-1.053.388a9.948 9.948 0 0 1-2.75-1.14a1 1 0 0 1-.47-1.02c.113-.688-.059-1.215-.38-1.537c-.323-.322-.85-.494-1.538-.38a1 1 0 0 1-1.02-.47a9.948 9.948 0 0 1-1.14-2.752a1 1 0 0 1 .388-1.053c.568-.406.82-.9.82-1.356c0-.455-.252-.95-.82-1.356a1 1 0 0 1-.388-1.053a9.947 9.947 0 0 1 1.14-2.751a1 1 0 0 1 1.02-.47c.688.113 1.215-.058 1.537-.38c.322-.322.494-.85.38-1.538a1 1 0 0 1 .47-1.019a9.946 9.946 0 0 1 2.751-1.14a1 1 0 0 1 1.053.388c.407.567.901.82 1.357.82c.455 0 .95-.253 1.356-.82a1 1 0 0 1 1.053-.388ZM12 7a5 5 0 1 0 0 10a5 5 0 0 0 0-10m0 2a3 3 0 1 1 0 6a3 3 0 0 1 0-6"></path></g></symbol>
<symbol viewBox="0 0 24 24" id="mingcute-settings-5-line"><g fill="none" fill-rule="evenodd"><path d="M24 0v24H0V0zM12.593 23.258l-.011.002l-.071.035l-.02.004l-.014-.004l-.071-.035c-.01-.004-.019-.001-.024.005l-.004.01l-.017.428l.005.02l.01.013l.104.074l.015.004l.012-.004l.104-.074l.012-.016l.004-.017l-.017-.427c-.002-.01-.009-.017-.017-.018m.265-.113l-.013.002l-.185.093l-.01.01l-.003.011l.018.43l.005.012l.008.007l.201.093c.012.004.023 0 .029-.008l.004-.014l-.034-.614c-.003-.012-.01-.02-.02-.022m-.715.002a.023.023 0 0 0-.027.006l-.006.014l-.034.614c0 .012.007.02.017.024l.015-.002l.201-.093l.01-.008l.004-.011l.017-.43l-.003-.012l-.01-.01z"></path><path fill="currentColor" d="M14.41 2.293a9.946 9.946 0 0 1 2.75 1.14a1 1 0 0 1 .47 1.019c-.113.689.059 1.216.38 1.538c.322.322.85.493 1.538.38a1 1 0 0 1 1.02.47a9.948 9.948 0 0 1 1.14 2.75a1 1 0 0 1-.388 1.054c-.568.407-.82.9-.82 1.356c0 .456.252.95.82 1.357a1 1 0 0 1 .388 1.053a9.947 9.947 0 0 1-1.14 2.75a1 1 0 0 1-1.02.47c-.689-.113-1.215.059-1.537.38c-.322.322-.494.85-.38 1.538a1 1 0 0 1-.47 1.02a9.948 9.948 0 0 1-2.752 1.14a1 1 0 0 1-1.053-.388c-.406-.568-.9-.82-1.356-.82c-.455 0-.95.252-1.356.82a1 1 0 0 1-1.053.388a9.948 9.948 0 0 1-2.752-1.14a1 1 0 0 1-.47-1.02c.114-.688-.057-1.215-.38-1.537c-.321-.322-.848-.494-1.537-.38a1 1 0 0 1-1.019-.47a9.947 9.947 0 0 1-1.14-2.752a1 1 0 0 1 .388-1.053c.567-.406.82-.9.82-1.356c0-.455-.253-.95-.82-1.356a1 1 0 0 1-.388-1.053a9.946 9.946 0 0 1 1.14-2.751a1 1 0 0 1 1.019-.47c.689.113 1.216-.058 1.538-.38c.322-.322.493-.85.38-1.538a1 1 0 0 1 .47-1.019a9.947 9.947 0 0 1 2.75-1.14a1 1 0 0 1 1.054.388c.407.567.9.82 1.356.82c.456 0 .95-.253 1.357-.82a1 1 0 0 1 1.053-.388m.102 2.11C13.855 5.06 12.992 5.5 12 5.5s-1.855-.439-2.512-1.098a7.944 7.944 0 0 0-1.084.45c.001.93-.299 1.85-1 2.552c-.701.701-1.622 1.001-2.552 1c-.176.348-.326.71-.45 1.084c.659.657 1.098 1.52 1.098 2.512s-.439 1.855-1.098 2.512c.124.374.275.737.45 1.085c.93-.002 1.85.298 2.552 1c.701.7 1.001 1.621 1 2.551c.347.176.71.326 1.084.45c.657-.659 1.52-1.098 2.512-1.098s1.855.44 2.512 1.098a7.943 7.943 0 0 0 1.085-.45c-.002-.93.298-1.85 1-2.552c.7-.701 1.621-1 2.551-1c.176-.347.326-.71.45-1.084c-.659-.657-1.098-1.52-1.098-2.512s.44-1.855 1.098-2.512a7.94 7.94 0 0 0-.45-1.084c-.93.001-1.85-.299-2.552-1c-.701-.701-1-1.622-1-2.552a7.945 7.945 0 0 0-1.084-.45ZM12 8a4 4 0 1 1 0 8a4 4 0 0 1 0-8m0 2a2 2 0 1 0 0 4a2 2 0 0 0 0-4"></path></g></symbol>
<symbol viewBox="0 0 20 20" id="ooui-settings"><g transform="translate(10 10)"><path id="oouiSettings0" fill="currentColor" d="M1.5-10h-3l-1 6.5h5m0 7h-5l1 6.5h3"></path><use href="#oouiSettings0" transform="rotate(45)"></use><use href="#oouiSettings0" transform="rotate(90)"></use><use href="#oouiSettings0" transform="rotate(135)"></use></g><path fill="currentColor" d="M10 2.5a7.5 7.5 0 0 0 0 15a7.5 7.5 0 0 0 0-15v4a3.5 3.5 0 0 1 0 7a3.5 3.5 0 0 1 0-7"></path></symbol>
<symbol viewBox="0 0 24 24" id="ri-settings-5-fill"><path fill="currentColor" d="M2.131 13.63a9.942 9.942 0 0 1 .001-3.26c1.101.026 2.092-.502 2.477-1.431c.385-.93.058-2.003-.74-2.763a9.942 9.942 0 0 1 2.306-2.307c.76.798 1.834 1.125 2.763.74c.93-.385 1.458-1.376 1.431-2.477a9.942 9.942 0 0 1 3.261 0c-.026 1.102.502 2.092 1.431 2.477c.93.385 2.003.058 2.763-.74a9.943 9.943 0 0 1 2.307 2.306c-.798.76-1.125 1.834-.74 2.764c.385.93 1.376 1.458 2.477 1.43a9.94 9.94 0 0 1 0 3.262c-1.102-.027-2.092.501-2.477 1.43c-.385.93-.058 2.004.74 2.764a9.94 9.94 0 0 1-2.306 2.306c-.76-.798-1.834-1.125-2.764-.74c-.93.385-1.458 1.376-1.43 2.478a9.939 9.939 0 0 1-3.262-.001c.027-1.101-.502-2.092-1.43-2.477c-.93-.385-2.004-.058-2.764.74a9.943 9.943 0 0 1-2.306-2.306c.798-.76 1.125-1.834.74-2.763c-.385-.93-1.376-1.458-2.478-1.431M12 15a3 3 0 1 0 0-6a3 3 0 0 0 0 6"></path></symbol>
<symbol viewBox="0 0 24 24" id="ri-settings-5-line"><path fill="currentColor" d="M2.212 14.06a9.945 9.945 0 0 1 .001-4.12c1.11.131 2.079-.236 2.396-1.001c.316-.765-.109-1.71-.986-2.402a9.945 9.945 0 0 1 2.913-2.914c.692.878 1.637 1.303 2.402.986c.765-.317 1.133-1.286 1.002-2.396a9.945 9.945 0 0 1 4.12 0c-.131 1.11.236 2.08 1.001 2.396c.765.317 1.71-.108 2.402-.985a9.944 9.944 0 0 1 2.914 2.912c-.878.692-1.303 1.638-.986 2.403c.317.765 1.286 1.132 2.396 1.001a9.946 9.946 0 0 1 0 4.12c-1.11-.13-2.08.237-2.396 1.002c-.317.764.108 1.71.985 2.402a9.946 9.946 0 0 1-2.912 2.914c-.693-.878-1.638-1.304-2.403-.987c-.765.317-1.132 1.286-1.001 2.397a9.944 9.944 0 0 1-4.12-.001c.13-1.11-.237-2.079-1.002-2.396c-.765-.317-1.71.109-2.402.986a9.944 9.944 0 0 1-2.914-2.913c.878-.692 1.304-1.637.987-2.402c-.317-.765-1.286-1.133-2.397-1.002M4 12.21c1.1.305 2.007 1.002 2.456 2.086c.45 1.085.3 2.22-.262 3.212c.097.102.196.201.298.298c.993-.563 2.127-.712 3.212-.262c1.084.449 1.781 1.356 2.085 2.456c.14.004.28.004.42 0c.305-1.1 1.002-2.007 2.087-2.456c1.084-.45 2.219-.3 3.212.262c.102-.097.2-.196.297-.298c-.562-.993-.711-2.127-.262-3.212c.45-1.084 1.357-1.781 2.456-2.085c.004-.14.004-.28 0-.421c-1.1-.304-2.007-1.001-2.456-2.086c-.45-1.084-.3-2.22.262-3.212a7.93 7.93 0 0 0-.297-.297c-.993.562-2.128.711-3.212.262C13.21 6.007 12.514 5.1 12.21 4a7.938 7.938 0 0 0-.42 0c-.305 1.1-1.002 2.008-2.086 2.457c-1.085.45-2.22.3-3.212-.262a7.586 7.586 0 0 0-.298.297c.563.993.712 2.128.262 3.212C6.007 10.79 5.1 11.485 4 11.79c-.004.14-.004.28 0 .42M12 15a3 3 0 1 1 0-6a3 3 0 0 1 0 6m0-2a1 1 0 1 0 0-2a1 1 0 0 0 0 2"></path></symbol>

</defs>
</svg>